<mxfile host="65bd71144e">
    <diagram id="TvCw0LTA8CI-RhWktugO" name="Page-1">
        <mxGraphModel dx="821" dy="663" grid="1" gridSize="10" guides="1" tooltips="1" connect="1" arrows="1" fold="1" page="1" pageScale="1" pageWidth="850" pageHeight="1100" math="0" shadow="0">
            <root>
                <mxCell id="0"/>
                <mxCell id="1" parent="0"/>
                <mxCell id="2" value="Запуск" style="ellipse;whiteSpace=wrap;html=1;" parent="1" vertex="1">
                    <mxGeometry x="362.75" y="30" width="120" height="50" as="geometry"/>
                </mxCell>
                <mxCell id="49" value="" style="edgeStyle=none;html=1;exitX=0.5;exitY=1;exitDx=0;exitDy=0;" parent="1" source="143" target="48" edge="1">
                    <mxGeometry relative="1" as="geometry">
                        <mxPoint x="422.75" y="350" as="sourcePoint"/>
                    </mxGeometry>
                </mxCell>
                <mxCell id="37" value="&quot;Кнопка погладить&quot;" style="edgeStyle=none;html=1;exitX=0;exitY=0.5;exitDx=0;exitDy=0;entryX=0.5;entryY=1;entryDx=0;entryDy=0;fillColor=#60a917;strokeColor=#2D7600;strokeWidth=3;" parent="1" target="87" edge="1">
                    <mxGeometry x="-0.1735" y="15" relative="1" as="geometry">
                        <mxPoint x="402.69" y="1137.5" as="sourcePoint"/>
                        <mxPoint x="200" y="1092.5" as="targetPoint"/>
                        <Array as="points">
                            <mxPoint x="135" y="1137.5"/>
                        </Array>
                        <mxPoint as="offset"/>
                    </mxGeometry>
                </mxCell>
                <mxCell id="21" value="НЕТ" style="edgeStyle=none;html=1;entryX=0;entryY=0.5;entryDx=0;entryDy=0;" parent="1" source="16" target="72" edge="1">
                    <mxGeometry x="0.0476" y="10" relative="1" as="geometry">
                        <mxPoint x="659.38" y="850" as="targetPoint"/>
                        <mxPoint as="offset"/>
                    </mxGeometry>
                </mxCell>
                <mxCell id="25" value="ДА" style="edgeStyle=none;html=1;entryX=0.5;entryY=0;entryDx=0;entryDy=0;" parent="1" source="16" target="75" edge="1">
                    <mxGeometry relative="1" as="geometry">
                        <mxPoint x="426" y="840" as="targetPoint"/>
                    </mxGeometry>
                </mxCell>
                <mxCell id="16" value="Здоровье питомца больше 0?" style="rhombus;whiteSpace=wrap;html=1;rounded=0;shadow=0;" parent="1" vertex="1">
                    <mxGeometry x="309.81" y="760" width="231" height="80" as="geometry"/>
                </mxCell>
                <mxCell id="71" value="" style="edgeStyle=none;html=1;exitX=0.5;exitY=1;exitDx=0;exitDy=0;" parent="1" source="72" target="70" edge="1">
                    <mxGeometry relative="1" as="geometry">
                        <mxPoint x="720" y="750" as="sourcePoint"/>
                    </mxGeometry>
                </mxCell>
                <mxCell id="103" style="edgeStyle=none;html=1;" parent="1" edge="1">
                    <mxGeometry relative="1" as="geometry">
                        <mxPoint x="420" y="650" as="targetPoint"/>
                        <mxPoint x="719.63" y="1011.9230769230769" as="sourcePoint"/>
                        <Array as="points">
                            <mxPoint x="769.2" y="1012"/>
                            <mxPoint x="769.63" y="650"/>
                        </Array>
                    </mxGeometry>
                </mxCell>
                <mxCell id="22" value="Обнуления сохранения и становления значений в изначальные" style="whiteSpace=wrap;html=1;rounded=0;" parent="1" vertex="1">
                    <mxGeometry x="565.06" y="980" width="160" height="70" as="geometry"/>
                </mxCell>
                <mxCell id="33" value="" style="edgeStyle=none;html=1;" parent="1" source="32" target="16" edge="1">
                    <mxGeometry relative="1" as="geometry"/>
                </mxCell>
                <mxCell id="32" value="проверка времени и пересчет параметров питомца" style="rounded=0;whiteSpace=wrap;html=1;" parent="1" vertex="1">
                    <mxGeometry x="352.81" y="670" width="143" height="50" as="geometry"/>
                </mxCell>
                <mxCell id="44" value="ДА" style="edgeStyle=none;html=1;exitX=0;exitY=0.5;exitDx=0;exitDy=0;entryX=0;entryY=0.5;entryDx=0;entryDy=0;" parent="1" source="41" target="143" edge="1">
                    <mxGeometry x="-0.0491" relative="1" as="geometry">
                        <mxPoint x="352.75" y="320" as="targetPoint"/>
                        <Array as="points">
                            <mxPoint x="300" y="235"/>
                            <mxPoint x="300" y="320"/>
                        </Array>
                        <mxPoint as="offset"/>
                    </mxGeometry>
                </mxCell>
                <mxCell id="47" value="НЕТ" style="edgeStyle=none;html=1;exitX=1;exitY=0.5;exitDx=0;exitDy=0;entryX=1;entryY=1;entryDx=0;entryDy=0;" parent="1" source="41" target="63" edge="1">
                    <mxGeometry relative="1" as="geometry">
                        <mxPoint x="487.75" y="170" as="targetPoint"/>
                        <Array as="points">
                            <mxPoint x="550" y="235"/>
                            <mxPoint x="550" y="163"/>
                        </Array>
                    </mxGeometry>
                </mxCell>
                <mxCell id="144" value="" style="edgeStyle=none;html=1;" parent="1" source="41" target="143" edge="1">
                    <mxGeometry relative="1" as="geometry"/>
                </mxCell>
                <mxCell id="41" value="Нажата ли кнопка start" style="rhombus;whiteSpace=wrap;html=1;" parent="1" vertex="1">
                    <mxGeometry x="350" y="200" width="150" height="70" as="geometry"/>
                </mxCell>
                <mxCell id="42" value="" style="edgeStyle=none;html=1;entryX=0.5;entryY=0;entryDx=0;entryDy=0;" parent="1" source="2" target="63" edge="1">
                    <mxGeometry relative="1" as="geometry">
                        <mxPoint x="424.32500000000005" y="110" as="targetPoint"/>
                        <mxPoint x="423" y="80" as="sourcePoint"/>
                    </mxGeometry>
                </mxCell>
                <mxCell id="50" style="edgeStyle=none;html=1;exitX=0;exitY=0.5;exitDx=0;exitDy=0;entryX=1;entryY=1;entryDx=0;entryDy=0;" parent="1" source="48" edge="1">
                    <mxGeometry relative="1" as="geometry">
                        <mxPoint x="160" y="350" as="targetPoint"/>
                        <Array as="points">
                            <mxPoint x="160" y="430"/>
                        </Array>
                    </mxGeometry>
                </mxCell>
                <mxCell id="51" value="ВЫХОД" style="edgeLabel;html=1;align=center;verticalAlign=middle;resizable=0;points=[];" parent="50" vertex="1" connectable="0">
                    <mxGeometry x="-0.2542" y="2" relative="1" as="geometry">
                        <mxPoint x="-3" y="-12" as="offset"/>
                    </mxGeometry>
                </mxCell>
                <mxCell id="52" value="HELP" style="edgeStyle=none;html=1;exitX=1;exitY=0.5;exitDx=0;exitDy=0;entryX=1;entryY=0.5;entryDx=0;entryDy=0;" parent="1" source="48" target="63" edge="1">
                    <mxGeometry x="-0.8093" y="10" relative="1" as="geometry">
                        <mxPoint x="487.75" y="140" as="targetPoint"/>
                        <Array as="points">
                            <mxPoint x="610" y="430"/>
                            <mxPoint x="610" y="145"/>
                        </Array>
                        <mxPoint as="offset"/>
                    </mxGeometry>
                </mxCell>
                <mxCell id="55" value="Выкл. звук" style="edgeStyle=none;html=1;exitX=0.698;exitY=0.206;exitDx=0;exitDy=0;entryX=0;entryY=0.25;entryDx=0;entryDy=0;exitPerimeter=0;" parent="1" source="48" target="54" edge="1">
                    <mxGeometry x="0.2781" y="-10" relative="1" as="geometry">
                        <mxPoint x="464.5" y="437.5" as="sourcePoint"/>
                        <mxPoint x="610" y="445" as="targetPoint"/>
                        <Array as="points">
                            <mxPoint x="460" y="360"/>
                        </Array>
                        <mxPoint as="offset"/>
                    </mxGeometry>
                </mxCell>
                <mxCell id="59" value="Вкл. звук" style="edgeStyle=none;html=1;exitX=0;exitY=0;exitDx=0;exitDy=0;entryX=1;entryY=0.5;entryDx=0;entryDy=0;" parent="1" source="48" target="57" edge="1">
                    <mxGeometry x="0.2608" y="-9" relative="1" as="geometry">
                        <Array as="points">
                            <mxPoint x="370" y="379"/>
                        </Array>
                        <mxPoint as="offset"/>
                    </mxGeometry>
                </mxCell>
                <mxCell id="68" value="" style="edgeStyle=none;html=1;" parent="1" source="48" target="67" edge="1">
                    <mxGeometry relative="1" as="geometry"/>
                </mxCell>
                <mxCell id="48" value="Какая кнопка нажата пользователем" style="rhombus;whiteSpace=wrap;html=1;" parent="1" vertex="1">
                    <mxGeometry x="339.25" y="380" width="167" height="100" as="geometry"/>
                </mxCell>
                <mxCell id="111" style="edgeStyle=none;html=1;exitX=0.5;exitY=0;exitDx=0;exitDy=0;entryX=1;entryY=0.5;entryDx=0;entryDy=0;" parent="1" source="54" target="143" edge="1">
                    <mxGeometry relative="1" as="geometry">
                        <mxPoint x="492.75" y="320" as="targetPoint"/>
                        <Array as="points">
                            <mxPoint x="565" y="321"/>
                        </Array>
                    </mxGeometry>
                </mxCell>
                <mxCell id="54" value="Выключить Звук" style="rounded=0;whiteSpace=wrap;html=1;" parent="1" vertex="1">
                    <mxGeometry x="530" y="350" width="70" height="40" as="geometry"/>
                </mxCell>
                <mxCell id="151" style="edgeStyle=none;html=1;exitX=0.5;exitY=0;exitDx=0;exitDy=0;" parent="1" source="57" edge="1">
                    <mxGeometry relative="1" as="geometry">
                        <mxPoint x="254.82978723404256" y="340" as="targetPoint"/>
                    </mxGeometry>
                </mxCell>
                <mxCell id="57" value="Включить Звук" style="rounded=0;whiteSpace=wrap;html=1;" parent="1" vertex="1">
                    <mxGeometry x="220" y="360" width="70" height="38" as="geometry"/>
                </mxCell>
                <mxCell id="60" value="Выход из игры" style="ellipse;whiteSpace=wrap;html=1;" parent="1" vertex="1">
                    <mxGeometry x="100" y="230" width="120" height="50" as="geometry"/>
                </mxCell>
                <mxCell id="62" value="" style="edgeStyle=none;html=1;" parent="1" source="61" target="60" edge="1">
                    <mxGeometry relative="1" as="geometry"/>
                </mxCell>
                <mxCell id="61" value="Сохранение" style="rounded=0;whiteSpace=wrap;html=1;" parent="1" vertex="1">
                    <mxGeometry x="110" y="320" width="100" height="30" as="geometry"/>
                </mxCell>
                <mxCell id="64" value="" style="edgeStyle=none;html=1;" parent="1" source="63" target="41" edge="1">
                    <mxGeometry relative="1" as="geometry"/>
                </mxCell>
                <mxCell id="63" value="Окно с выводом информации о программе" style="shape=parallelogram;perimeter=parallelogramPerimeter;whiteSpace=wrap;html=1;fixedSize=1;" parent="1" vertex="1">
                    <mxGeometry x="360" y="120" width="130" height="50" as="geometry"/>
                </mxCell>
                <mxCell id="105" value="" style="edgeStyle=none;html=1;" parent="1" source="67" target="104" edge="1">
                    <mxGeometry relative="1" as="geometry"/>
                </mxCell>
                <mxCell id="67" value="Выбор сохранения" style="shape=parallelogram;perimeter=parallelogramPerimeter;whiteSpace=wrap;html=1;fixedSize=1;" parent="1" vertex="1">
                    <mxGeometry x="351" y="500" width="148" height="40" as="geometry"/>
                </mxCell>
                <mxCell id="73" value="НЕТ" style="edgeStyle=none;html=1;exitX=1;exitY=0.5;exitDx=0;exitDy=0;entryX=1;entryY=0.5;entryDx=0;entryDy=0;" parent="1" source="70" target="72" edge="1">
                    <mxGeometry x="-0.0323" y="20" relative="1" as="geometry">
                        <Array as="points">
                            <mxPoint x="735.68" y="895"/>
                            <mxPoint x="735.68" y="800"/>
                        </Array>
                        <mxPoint as="offset"/>
                    </mxGeometry>
                </mxCell>
                <mxCell id="74" value="ДА" style="edgeStyle=none;html=1;exitX=0.5;exitY=1;exitDx=0;exitDy=0;entryX=0.5;entryY=0;entryDx=0;entryDy=0;" parent="1" source="70" target="22" edge="1">
                    <mxGeometry relative="1" as="geometry"/>
                </mxCell>
                <mxCell id="70" value="Нажата ли кнопка &quot;Начать заново&quot;" style="rhombus;whiteSpace=wrap;html=1;" parent="1" vertex="1">
                    <mxGeometry x="575.06" y="855" width="140" height="80" as="geometry"/>
                </mxCell>
                <mxCell id="72" value="Сцена смерти питомца" style="shape=parallelogram;perimeter=parallelogramPerimeter;whiteSpace=wrap;html=1;fixedSize=1;" parent="1" vertex="1">
                    <mxGeometry x="585.06" y="775" width="120" height="50" as="geometry"/>
                </mxCell>
                <mxCell id="77" value="" style="edgeStyle=none;html=1;" parent="1" source="75" target="76" edge="1">
                    <mxGeometry relative="1" as="geometry"/>
                </mxCell>
                <mxCell id="75" value="Показ Игрового фона" style="shape=parallelogram;perimeter=parallelogramPerimeter;whiteSpace=wrap;html=1;fixedSize=1;" parent="1" vertex="1">
                    <mxGeometry x="350.06" y="875" width="150" height="35" as="geometry"/>
                </mxCell>
                <mxCell id="84" value="" style="edgeStyle=none;html=1;exitX=0.5;exitY=1;exitDx=0;exitDy=0;" parent="1" source="76" edge="1">
                    <mxGeometry relative="1" as="geometry">
                        <mxPoint x="423.99882352941177" y="965" as="sourcePoint"/>
                        <mxPoint x="425.14" y="990" as="targetPoint"/>
                    </mxGeometry>
                </mxCell>
                <mxCell id="76" value="Вывод парметров питомца" style="shape=parallelogram;perimeter=parallelogramPerimeter;whiteSpace=wrap;html=1;fixedSize=1;fillColor=none;fontColor=light-dark(#000000,#000000);strokeColor=#2D7600;strokeWidth=4;rounded=0;shadow=0;" parent="1" vertex="1">
                    <mxGeometry x="350.06" y="930" width="150" height="35" as="geometry"/>
                </mxCell>
                <mxCell id="86" value="" style="edgeStyle=none;html=1;exitX=0.441;exitY=1.017;exitDx=0;exitDy=0;exitPerimeter=0;" parent="1" source="83" target="85" edge="1">
                    <mxGeometry relative="1" as="geometry"/>
                </mxCell>
                <mxCell id="83" value="Отобразить питомца &#xa;(есль есть анимация &#xa;показать текущий кадр)" style="shape=parallelogram;perimeter=parallelogramPerimeter;fixedSize=1;fontStyle=0;fillStyle=auto;fillColor=none;fontColor=light-dark(#000000,#000000);strokeColor=#2D7600;strokeWidth=3;perimeterSpacing=0;" parent="1" vertex="1">
                    <mxGeometry x="352.81" y="990" width="172.38" height="50" as="geometry"/>
                </mxCell>
                <mxCell id="89" style="edgeStyle=none;html=1;exitX=0.195;exitY=0.315;exitDx=0;exitDy=0;entryX=0.5;entryY=1;entryDx=0;entryDy=0;exitPerimeter=0;fillColor=#60a917;strokeColor=#2D7600;strokeWidth=3;" parent="1" source="85" target="88" edge="1">
                    <mxGeometry relative="1" as="geometry">
                        <mxPoint x="441.07999999999987" y="1115" as="sourcePoint"/>
                        <Array as="points">
                            <mxPoint x="280" y="1118"/>
                        </Array>
                    </mxGeometry>
                </mxCell>
                <mxCell id="90" value="&quot;Кнопка кормить&quot;" style="edgeLabel;html=1;align=center;verticalAlign=middle;resizable=0;points=[];" parent="89" vertex="1" connectable="0">
                    <mxGeometry x="-0.0057" y="4" relative="1" as="geometry">
                        <mxPoint x="21" y="-17" as="offset"/>
                    </mxGeometry>
                </mxCell>
                <mxCell id="115" value="&quot;Кнопка палитра&quot;" style="edgeStyle=none;html=1;" parent="1" source="85" target="114" edge="1">
                    <mxGeometry x="-0.0492" y="15" relative="1" as="geometry">
                        <mxPoint as="offset"/>
                    </mxGeometry>
                </mxCell>
                <mxCell id="147" style="edgeStyle=none;html=1;exitX=0.5;exitY=1;exitDx=0;exitDy=0;entryX=0;entryY=1;entryDx=0;entryDy=0;" parent="1" source="85" target="143" edge="1">
                    <mxGeometry relative="1" as="geometry">
                        <mxPoint x="60" y="1180" as="targetPoint"/>
                        <Array as="points">
                            <mxPoint x="250" y="1180"/>
                            <mxPoint x="50" y="1180"/>
                            <mxPoint x="50" y="200"/>
                            <mxPoint x="250" y="200"/>
                            <mxPoint x="250" y="340"/>
                        </Array>
                    </mxGeometry>
                </mxCell>
                <mxCell id="148" value="ESC" style="edgeLabel;html=1;align=center;verticalAlign=middle;resizable=0;points=[];" parent="147" vertex="1" connectable="0">
                    <mxGeometry x="-0.0101" relative="1" as="geometry">
                        <mxPoint x="180" y="527" as="offset"/>
                    </mxGeometry>
                </mxCell>
                <mxCell id="85" value="Какую кнопку нажал пользователь" style="rhombus;whiteSpace=wrap;html=1;fontStyle=0;" parent="1" vertex="1">
                    <mxGeometry x="352.5" y="1090" width="153.56" height="90" as="geometry"/>
                </mxCell>
                <mxCell id="93" value="" style="edgeStyle=none;html=1;" parent="1" source="87" target="91" edge="1">
                    <mxGeometry relative="1" as="geometry"/>
                </mxCell>
                <mxCell id="87" value="Добавление очков к параметру &quot;Настроение&quot;" style="rounded=0;whiteSpace=wrap;html=1;fillColor=none;fontColor=light-dark(#000000,#000000);strokeColor=#2D7600;perimeterSpacing=0;strokeWidth=4;" parent="1" vertex="1">
                    <mxGeometry x="70" y="1032.5" width="130" height="60" as="geometry"/>
                </mxCell>
                <mxCell id="95" value="" style="edgeStyle=none;html=1;" parent="1" source="88" target="94" edge="1">
                    <mxGeometry relative="1" as="geometry"/>
                </mxCell>
                <mxCell id="88" value="Добавление очков к параметру &quot;Насыщеность&quot;" style="rounded=0;fontColor=light-dark(#000000,#000000);textShadow=0;whiteSpace=wrap;fillColor=none;strokeColor=#2D7600;strokeWidth=4;html=1;glass=0;" parent="1" vertex="1">
                    <mxGeometry x="220" y="1032.5" width="120" height="60" as="geometry"/>
                </mxCell>
                <mxCell id="99" style="edgeStyle=none;html=1;" parent="1" source="91" edge="1">
                    <mxGeometry relative="1" as="geometry">
                        <mxPoint x="290" y="650" as="targetPoint"/>
                        <Array as="points">
                            <mxPoint x="135" y="650"/>
                        </Array>
                    </mxGeometry>
                </mxCell>
                <mxCell id="91" value="Эффект&amp;nbsp;&lt;br&gt;удовольствия" style="shape=parallelogram;perimeter=parallelogramPerimeter;whiteSpace=wrap;fixedSize=1;html=1;fillColor=none;fontColor=light-dark(#000000,#000000);strokeColor=#2D7600;perimeterSpacing=0;strokeWidth=4;" parent="1" vertex="1">
                    <mxGeometry x="70" y="932.5" width="130" height="40" as="geometry"/>
                </mxCell>
                <mxCell id="98" style="edgeStyle=none;html=1;exitX=0.5;exitY=0;exitDx=0;exitDy=0;" parent="1" source="94" edge="1">
                    <mxGeometry relative="1" as="geometry">
                        <mxPoint x="425" y="650" as="targetPoint"/>
                        <mxPoint x="235" y="930" as="sourcePoint"/>
                        <Array as="points">
                            <mxPoint x="280" y="650"/>
                        </Array>
                    </mxGeometry>
                </mxCell>
                <mxCell id="94" value="Эффект&amp;nbsp;&lt;br&gt;кормления" style="shape=parallelogram;perimeter=parallelogramPerimeter;fixedSize=1;whiteSpace=wrap;html=1;fillColor=none;fontColor=light-dark(#000000,#000000);strokeColor=#2D7600;perimeterSpacing=0;strokeWidth=4;" parent="1" vertex="1">
                    <mxGeometry x="220" y="932.5" width="120" height="40" as="geometry"/>
                </mxCell>
                <mxCell id="106" style="edgeStyle=none;html=1;exitX=1;exitY=0.5;exitDx=0;exitDy=0;entryX=1;entryY=0.5;entryDx=0;entryDy=0;" parent="1" source="104" target="67" edge="1">
                    <mxGeometry relative="1" as="geometry">
                        <Array as="points">
                            <mxPoint x="530" y="590"/>
                            <mxPoint x="530" y="520"/>
                        </Array>
                    </mxGeometry>
                </mxCell>
                <mxCell id="107" value="ДА" style="edgeLabel;html=1;align=center;verticalAlign=middle;resizable=0;points=[];" parent="106" vertex="1" connectable="0">
                    <mxGeometry x="-0.0752" relative="1" as="geometry">
                        <mxPoint x="-18" y="-14" as="offset"/>
                    </mxGeometry>
                </mxCell>
                <mxCell id="108" value="" style="edgeStyle=none;html=1;" parent="1" source="104" target="32" edge="1">
                    <mxGeometry relative="1" as="geometry"/>
                </mxCell>
                <mxCell id="109" value="ДА" style="edgeLabel;html=1;align=center;verticalAlign=middle;resizable=0;points=[];" parent="108" vertex="1" connectable="0">
                    <mxGeometry x="-0.5084" relative="1" as="geometry">
                        <mxPoint as="offset"/>
                    </mxGeometry>
                </mxCell>
                <mxCell id="104" value="Нажата ли кнопка &quot;Назад&quot;" style="rhombus;whiteSpace=wrap;html=1;" parent="1" vertex="1">
                    <mxGeometry x="300" y="560" width="250" height="60" as="geometry"/>
                </mxCell>
                <mxCell id="119" value="" style="edgeStyle=none;html=1;entryX=0.5;entryY=0;entryDx=0;entryDy=0;exitX=0.283;exitY=1.015;exitDx=0;exitDy=0;exitPerimeter=0;" parent="1" source="114" target="118" edge="1">
                    <mxGeometry relative="1" as="geometry">
                        <Array as="points">
                            <mxPoint x="619" y="1230"/>
                        </Array>
                    </mxGeometry>
                </mxCell>
                <mxCell id="114" value="Меню Выбора скина и смены имени питомца" style="shape=parallelogram;perimeter=parallelogramPerimeter;whiteSpace=wrap;html=1;fixedSize=1;fillColor=none;fontColor=light-dark(#000000,#000000);strokeColor=#2D7600;strokeWidth=4;labelBackgroundColor=none;labelBorderColor=none;textShadow=0;" parent="1" vertex="1">
                    <mxGeometry x="575.06" y="1105" width="160" height="65" as="geometry"/>
                </mxCell>
                <mxCell id="120" style="edgeStyle=none;html=1;exitX=1;exitY=0.5;exitDx=0;exitDy=0;" parent="1" source="118" edge="1">
                    <mxGeometry relative="1" as="geometry">
                        <mxPoint x="765.68" y="1010" as="targetPoint"/>
                        <mxPoint x="705.06" y="1260" as="sourcePoint"/>
                        <Array as="points">
                            <mxPoint x="765.68" y="1250"/>
                        </Array>
                    </mxGeometry>
                </mxCell>
                <mxCell id="121" value="ВЫЙТИ" style="edgeLabel;html=1;align=center;verticalAlign=middle;resizable=0;points=[];" parent="120" vertex="1" connectable="0">
                    <mxGeometry x="-0.8023" relative="1" as="geometry">
                        <mxPoint y="-10" as="offset"/>
                    </mxGeometry>
                </mxCell>
                <mxCell id="123" value="" style="edgeStyle=none;html=1;exitX=0.5;exitY=1;exitDx=0;exitDy=0;fillColor=#60a917;strokeColor=#2D7600;fontColor=light-dark(#FFFFFF,#FFFFFF);strokeWidth=3;" parent="1" source="118" target="122" edge="1">
                    <mxGeometry relative="1" as="geometry"/>
                </mxCell>
                <mxCell id="124" value="Стрелочка вправа" style="edgeLabel;html=1;align=center;verticalAlign=middle;resizable=0;points=[];" parent="123" vertex="1" connectable="0">
                    <mxGeometry x="-0.3028" y="-2" relative="1" as="geometry">
                        <mxPoint x="-4" y="16" as="offset"/>
                    </mxGeometry>
                </mxCell>
                <mxCell id="125" style="edgeStyle=none;html=1;exitX=0;exitY=1;exitDx=0;exitDy=0;entryX=0.5;entryY=0;entryDx=0;entryDy=0;fillColor=#60a917;strokeColor=#2D7600;fontColor=light-dark(#FFFFFF,#FFFFFF);strokeWidth=3;" parent="1" source="118" target="126" edge="1">
                    <mxGeometry relative="1" as="geometry">
                        <mxPoint x="620" y="1390" as="targetPoint"/>
                    </mxGeometry>
                </mxCell>
                <mxCell id="128" value="Стрелочка слево" style="edgeLabel;html=1;align=center;verticalAlign=middle;resizable=0;points=[];" parent="125" vertex="1" connectable="0">
                    <mxGeometry x="-0.1136" y="3" relative="1" as="geometry">
                        <mxPoint x="-8" y="7" as="offset"/>
                    </mxGeometry>
                </mxCell>
                <mxCell id="131" style="edgeStyle=none;html=1;exitX=1;exitY=1;exitDx=0;exitDy=0;entryX=0.5;entryY=0;entryDx=0;entryDy=0;fillColor=#60a917;strokeColor=#2D7600;fontColor=light-dark(#FFFFFF,#FFFFFF);strokeWidth=3;" parent="1" source="118" target="130" edge="1">
                    <mxGeometry relative="1" as="geometry"/>
                </mxCell>
                <mxCell id="132" value="ГОТОВО" style="edgeLabel;html=1;align=center;verticalAlign=middle;resizable=0;points=[];" parent="131" vertex="1" connectable="0">
                    <mxGeometry x="-0.0449" y="2" relative="1" as="geometry">
                        <mxPoint as="offset"/>
                    </mxGeometry>
                </mxCell>
                <mxCell id="136" value="ГОТОВО&lt;br&gt;возле&amp;nbsp;&lt;br&gt;ввода" style="edgeStyle=none;html=1;exitX=1;exitY=1;exitDx=0;exitDy=0;entryX=0;entryY=0;entryDx=0;entryDy=0;" parent="1" source="118" target="137" edge="1">
                    <mxGeometry relative="1" as="geometry">
                        <mxPoint x="700" y="1430" as="targetPoint"/>
                    </mxGeometry>
                </mxCell>
                <mxCell id="139" style="edgeStyle=none;html=1;exitX=1;exitY=1;exitDx=0;exitDy=0;entryX=1;entryY=0;entryDx=0;entryDy=0;" parent="1" source="118" target="138" edge="1">
                    <mxGeometry relative="1" as="geometry">
                        <Array as="points">
                            <mxPoint x="670" y="1450"/>
                        </Array>
                    </mxGeometry>
                </mxCell>
                <mxCell id="140" value="Поле ввода" style="edgeLabel;html=1;align=center;verticalAlign=middle;resizable=0;points=[];" parent="139" vertex="1" connectable="0">
                    <mxGeometry x="0.784" y="-2" relative="1" as="geometry">
                        <mxPoint x="5" y="-18" as="offset"/>
                    </mxGeometry>
                </mxCell>
                <mxCell id="118" value="Какую кнопку нажал пользователь" style="rhombus;whiteSpace=wrap;html=1;" parent="1" vertex="1">
                    <mxGeometry x="534.4399999999999" y="1210" width="170.62" height="80" as="geometry"/>
                </mxCell>
                <mxCell id="134" style="edgeStyle=none;html=1;exitX=0;exitY=1;exitDx=0;exitDy=0;entryX=0;entryY=1;entryDx=0;entryDy=0;" parent="1" source="122" target="114" edge="1">
                    <mxGeometry relative="1" as="geometry">
                        <Array as="points">
                            <mxPoint x="410" y="1410"/>
                            <mxPoint x="410" y="1310"/>
                            <mxPoint x="480.43" y="1310"/>
                            <mxPoint x="480.43" y="1170"/>
                        </Array>
                    </mxGeometry>
                </mxCell>
                <mxCell id="122" value="Переключить следующий желаемый скин" style="whiteSpace=wrap;html=1;fillColor=none;fontColor=light-dark(#000000,#000000);strokeColor=#2D7600;strokeWidth=4;" parent="1" vertex="1">
                    <mxGeometry x="548.76" y="1360" width="111.24" height="50" as="geometry"/>
                </mxCell>
                <mxCell id="135" style="edgeStyle=none;html=1;exitX=0;exitY=0;exitDx=0;exitDy=0;" parent="1" source="126" edge="1">
                    <mxGeometry relative="1" as="geometry">
                        <mxPoint x="431.57285714285723" y="1310" as="targetPoint"/>
                    </mxGeometry>
                </mxCell>
                <mxCell id="126" value="Переключить предыдущий желаемый скин" style="rounded=0;glass=0;whiteSpace=wrap;html=1;fillColor=none;fontColor=light-dark(#000000,#000000);strokeColor=#2D7600;strokeWidth=4;" parent="1" vertex="1">
                    <mxGeometry x="431.31" y="1340" width="110" height="50" as="geometry"/>
                </mxCell>
                <mxCell id="133" style="edgeStyle=none;html=1;exitX=1;exitY=0.5;exitDx=0;exitDy=0;" parent="1" source="130" edge="1">
                    <mxGeometry relative="1" as="geometry">
                        <mxPoint x="765.68" y="1240" as="targetPoint"/>
                        <Array as="points">
                            <mxPoint x="836" y="1240"/>
                        </Array>
                    </mxGeometry>
                </mxCell>
                <mxCell id="130" value="Выбрать новый скин как основной" style="rounded=0;whiteSpace=wrap;html=1;fillColor=none;fontColor=light-dark(#000000,#000000);strokeColor=#2D7600;strokeWidth=4;" parent="1" vertex="1">
                    <mxGeometry x="715.06" y="1335" width="120.62" height="55" as="geometry"/>
                </mxCell>
                <mxCell id="141" style="edgeStyle=none;html=1;exitX=0.5;exitY=1;exitDx=0;exitDy=0;" parent="1" source="137" edge="1">
                    <mxGeometry relative="1" as="geometry">
                        <mxPoint x="410" y="1390" as="targetPoint"/>
                        <Array as="points">
                            <mxPoint x="773" y="1520"/>
                            <mxPoint x="410" y="1520"/>
                        </Array>
                    </mxGeometry>
                </mxCell>
                <mxCell id="137" value="Изменить имя питомца" style="rounded=0;whiteSpace=wrap;html=1;" parent="1" vertex="1">
                    <mxGeometry x="715.06" y="1450" width="114.94" height="50" as="geometry"/>
                </mxCell>
                <mxCell id="142" style="edgeStyle=none;html=1;" parent="1" source="138" edge="1">
                    <mxGeometry relative="1" as="geometry">
                        <mxPoint x="410" y="1475" as="targetPoint"/>
                    </mxGeometry>
                </mxCell>
                <mxCell id="138" value="Приглашение к вводу имени питомца" style="shape=parallelogram;perimeter=parallelogramPerimeter;whiteSpace=wrap;html=1;fixedSize=1;" parent="1" vertex="1">
                    <mxGeometry x="470" y="1450" width="156.25" height="50" as="geometry"/>
                </mxCell>
                <mxCell id="143" value="Меню игры" style="shape=parallelogram;perimeter=parallelogramPerimeter;whiteSpace=wrap;html=1;fixedSize=1;" parent="1" vertex="1">
                    <mxGeometry x="362.75" y="300" width="120" height="41" as="geometry"/>
                </mxCell>
                <mxCell id="152" value="" style="shape=image;verticalLabelPosition=bottom;labelBackgroundColor=default;verticalAlign=top;aspect=fixed;imageAspect=0;image=data:image/svg+xml,PHN2ZyB4bWxucz0iaHR0cDovL3d3dy53My5vcmcvMjAwMC9zdmciIGZpbGw9IiM1ZjYzNjgiIHdpZHRoPSIyNHB4IiB2aWV3Qm94PSIwIC05NjAgOTYwIDk2MCIgaGVpZ2h0PSIyNHB4Ij48cGF0aCBkPSJNNDgwLTM2MCAyODAtNTYwaDQwMEw0ODAtMzYwWiIvPjwvc3ZnPg==;" vertex="1" parent="1">
                    <mxGeometry width="24" height="24" as="geometry"/>
                </mxCell>
            </root>
        </mxGraphModel>
    </diagram>
</mxfile>